<!--?xml version="1.0" standalone="no"?-->

<svg version="1.0" xmlns="http://www.w3.org/2000/svg" width="300.000000pt" height="238.000000pt" viewBox="0 0 300.000000 238.000000" preserveAspectRatio="xMidYMid meet">
<g transform="translate(0.000000,238.000000) scale(0.100000,-0.100000)" fill="#0A0A0A" stroke="none">
<path class="node" id="node1" d="M1685 2230 c-22 -24 -170 -124 -210 -141 -39 -17 -42 -23 -51 -84 -3
-27 -10 -60 -15 -72 -5 -13 -7 -23 -5 -23 18 0 144 45 169 61 18 10 35 19 40
19 8 0 8 -4 -27 -155 -14 -60 -32 -146 -41 -190 -8 -44 -18 -90 -21 -102 -6
-23 -5 -23 89 -23 l96 0 11 39 c6 22 19 84 31 138 11 54 28 132 39 173 10 41
21 95 25 120 4 25 18 89 31 142 13 53 24 101 24 107 0 7 -31 11 -83 11 -71 0
-87 -3 -102 -20z"></path>
<path class="node" id="node2" d="M2295 2241 c-170 -34 -281 -193 -293 -417 -5 -107 11 -169 59 -227
53 -65 99 -82 214 -82 95 1 103 2 150 32 95 61 135 133 135 246 0 87 -19 124
-90 172 -58 39 -141 41 -208 6 -24 -12 -46 -20 -49 -17 -3 2 2 19 11 37 9 18
16 38 16 46 0 7 16 31 36 53 52 58 97 54 139 -12 8 -13 24 -15 92 -9 45 3 85
9 88 13 12 12 -14 74 -43 100 -53 51 -166 76 -257 59z m60 -387 c65 -70 2
-226 -90 -226 -72 0 -105 78 -71 167 33 84 111 113 161 59z"></path>
<path stroke-width="20" class="node" id="node3" d="M304 2153 c-17 -19 -141 -194 -231 -327 -32 -47 -53 -88 -51 -100 3
-20 10 -21 150 -24 l147 -3 3 -87 3 -87 37 -3 37 -3 3 88 3 88 43 3 c39 3 42
5 42 32 0 27 -3 29 -42 32 l-43 3 -3 203 -2 202 -40 0 c-25 0 -46 -6 -56 -17z
m16 -233 l0 -160 -105 0 c-58 0 -105 3 -105 8 0 4 32 50 70 102 38 52 84 121
102 152 18 32 34 58 36 58 1 0 2 -72 2 -160z"></path>
<path class="node" id="node4" d="M645 2160 c-6 -10 -34 -224 -35 -266 0 -20 6 -22 84 -26 70 -4 91 -9
124 -31 77 -50 82 -157 12 -221 -51 -46 -105 -55 -183 -28 -61 20 -77 15 -77
-24 0 -33 50 -49 150 -49 69 0 93 5 128 23 82 44 123 134 107 237 -13 91 -103
155 -216 155 -32 0 -59 4 -59 10 0 5 5 43 11 85 l11 75 124 0 124 0 0 35 0 35
-149 0 c-92 0 -152 -4 -156 -10z"></path>
<path class="node" id="node5" d="M1836 1020 c-124 -53 -180 -134 -155 -225 27 -98 177 -110 216 -17
20 47 2 100 -35 107 -47 10 -77 30 -80 53 -4 29 12 48 62 74 69 35 160 11 194
-53 19 -35 9 -135 -18 -189 -34 -67 -144 -169 -338 -315 l-173 -130 307 -3
c235 -2 309 1 315 10 4 7 25 55 45 108 20 52 46 115 57 140 11 25 21 50 24 55
2 6 -6 -3 -19 -20 -13 -16 -37 -44 -55 -62 l-31 -33 -171 0 c-96 0 -171 4
-171 9 0 10 85 43 205 82 100 31 164 65 212 112 108 104 86 238 -49 298 -43
18 -74 24 -163 26 -104 3 -114 2 -179 -27z"></path>
<path class="node" id="node6" d="M2562 1030 c-122 -44 -173 -98 -180 -188 -5 -70 18 -106 78 -122 51
-14 84 -5 120 32 50 50 31 138 -30 138 -15 0 -38 9 -51 19 -35 28 -18 69 41
99 107 54 210 -1 210 -112 0 -130 -69 -215 -342 -421 -101 -76 -187 -142 -193
-146 -5 -5 126 -9 301 -9 l309 0 17 33 c30 60 117 292 100 267 -9 -14 -33 -42
-53 -62 l-37 -38 -171 0 c-98 0 -171 4 -171 9 0 10 53 31 190 76 207 68 291
141 293 254 2 120 -107 191 -292 191 -59 -1 -103 -7 -139 -20z"></path>
<path class="node" id="node7" d="M475 960 c-33 -35 -94 -100 -135 -144 -41 -44 -104 -112 -140 -151
-36 -38 -89 -95 -118 -125 -80 -85 -76 -90 68 -90 l120 0 0 -65 0 -65 135 0
135 0 0 64 0 65 47 3 c66 4 70 28 4 28 l-51 0 -2 272 -3 271 -60 -63z m-205
-375 l0 -105 -95 0 c-52 0 -95 4 -95 8 0 8 178 202 186 202 2 0 4 -47 4 -105z"></path>
<path class="node" id="node8" d="M865 987 c-98 -26 -163 -73 -136 -100 7 -7 22 1 45 21 20 17 59 38
88 47 93 27 88 34 88 -124 l0 -140 -52 -3 c-71 -4 -76 -26 -6 -30 l53 -3 3
-163 c2 -133 0 -163 -12 -168 -25 -9 -137 17 -175 41 -21 12 -45 35 -54 49
-23 34 -39 33 -35 -1 4 -38 80 -88 156 -104 84 -17 236 -7 292 19 89 41 130
95 130 168 0 88 -51 133 -173 154 -37 7 -67 15 -67 20 0 4 23 10 50 13 69 8
136 55 150 105 13 50 13 60 -9 108 -15 33 -30 47 -74 69 -67 32 -183 42 -262
22z"></path>
</g>
<g transform="translate(0.000000,238.000000) scale(0.100000,-0.100000)" fill="#A0A0A0" stroke="none">




</g>
</svg>